# xmcd CD database file
#
# Track frame offsets:
#	150
#	16164
#	27072
#	46346
#	66560
#	86252
#	101172
#	116510
#	131702
#	150516
#
# Disc length: 2374 seconds
#
# Revision: 1
# Processed by: cddbd v1.5.2PL0 Copyright (c) Steve Scherf et al.
# Submitted via: CDex 1.75
#
DISCID=7809440a
DTITLE=Geezer - Electrically Recorded Handmade Heravy Blues
DYEAR=2013
DGENRE=Blues
TTITLE0=Planes, Trains and Automobiles
TTITLE1=Do It In The Road
TTITLE2=Pony
TTITLE3=Rain On The Highway
TTITLE4=Underground
TTITLE5=Full Tilt Boogie
TTITLE6=Eyes Like Laserbeams
TTITLE7=I'm Coming Home
TTITLE8=I Just Wanna Get High With You
TTITLE9=Still A Fool
EXTD=YEAR: 2013
EXTT0=
EXTT1=
EXTT2=
EXTT3=
EXTT4=
EXTT5=
EXTT6=
EXTT7=
EXTT8=
EXTT9=
PLAYORDER=
